<?xml version="1.0" encoding="UTF-8"?>
<svg id="_레이어_2" data-name="레이어 2" xmlns="http://www.w3.org/2000/svg" viewBox="0 0 662.89 181.55">
  <defs>
    <style>
      .cls-1 {
        fill: #fff364;
        stroke-width: 0px;
      }
    </style>
  </defs>
  <g id="_레이어_1-2" data-name="레이어 1">
    <polygon class="cls-1" points="95.45 150.54 36.46 181.55 47.72 115.86 0 69.35 65.95 59.76 95.45 0 124.94 59.76 190.89 69.35 143.17 115.86 154.43 181.55 95.45 150.54"/>
    <polygon class="cls-1" points="331.45 150.54 272.46 181.55 283.72 115.86 236 69.35 301.95 59.76 331.45 0 360.94 59.76 426.89 69.35 379.17 115.86 390.43 181.55 331.45 150.54"/>
    <polygon class="cls-1" points="567.45 150.54 508.46 181.55 519.72 115.86 472 69.35 537.95 59.76 567.45 0 596.94 59.76 662.89 69.35 615.17 115.86 626.43 181.55 567.45 150.54"/>
  </g>
</svg>