<?xml version="1.0" encoding="UTF-8"?>
<svg id="_레이어_2" data-name="레이어 2" xmlns="http://www.w3.org/2000/svg" viewBox="0 0 430.19 446.8">
  <defs>
    <style>
      .cls-1 {
        fill: #5df;
        stroke-width: 0px;
      }
    </style>
  </defs>
  <g id="_레이어_1-2" data-name="레이어 1">
    <path class="cls-1" d="m12.6,250.69c-6-3.08-9.6-5.39-10.8-6.94-1.21-1.54-1.8-4.78-1.8-9.71v-21.27c0-4.93.59-8.17,1.8-9.71,1.2-1.54,4.8-3.85,10.8-6.94L368.09,6.04c7.79-4.31,12.6-6.32,14.4-6.01,1.8.31,2.7,3.55,2.7,9.71v43.93c0,3.09-.15,5.55-.45,7.4-.31,1.85-.9,3.4-1.8,4.62-.9,1.24-2.56,2.54-4.95,3.93-2.41,1.39-5.4,3.17-9,5.32L107.1,215.54c-4.81,2.47-7.06,4.62-6.75,6.47.3,1.85,3.15,4.32,8.55,7.4l260.1,142.44c4.19,2.46,7.34,4.31,9.45,5.55,2.1,1.23,3.6,2.54,4.5,3.93.9,1.39,1.49,2.93,1.8,4.62.3,1.69.45,4.08.45,7.17v43.93c0,6.16-.9,9.4-2.7,9.71-1.8.3-6.61-1.7-14.4-6.01L12.6,250.69Z"/>
    <rect class="cls-1" x="274.19" y="197.02" width="156" height="52.77" rx="19.24" ry="19.24"/>
  </g>
</svg>