<?xml version="1.0" encoding="utf-8"?>
<!-- Generator: Adobe Illustrator 28.0.0, SVG Export Plug-In . SVG Version: 6.00 Build 0)  -->
<svg version="1.1" id="레이어_1" xmlns="http://www.w3.org/2000/svg" xmlns:xlink="http://www.w3.org/1999/xlink" x="0px"
	 y="0px" viewBox="0 0 512 512" style="enable-background:new 0 0 512 512;" xml:space="preserve">
<style type="text/css">
	.st0{fill:#FC0B0B;}
</style>
<g>
	<path class="st0" d="M256,464c-114.7,0-208-93.3-208-208S141.3,48,256,48s208,93.3,208,208S370.7,464,256,464z M256,80
		c-97,0-176,79-176,176s79,176,176,176s176-79,176-176S353,80,256,80z"/>
</g>
<g>
	<path class="st0" d="M256,304c-8.5,0-15.6-6.7-16-15.2l-5.7-121.9c0,0,0,0,0-0.1c0-0.3,0-0.5,0-0.8c-0.1-11.9,9.5-21.8,21.5-21.9
		c0.4,0,0.8,0,1.2,0c5.8,0.3,11.1,2.8,15.1,7.1s5.9,9.8,5.7,15.6l-5.7,122C271.6,297.3,264.5,304,256,304z M266.2,165.3
		C266.2,165.3,266.2,165.3,266.2,165.3l0,0.1C266.2,165.3,266.2,165.3,266.2,165.3z"/>
</g>
<g>
	<path class="st0" d="M256,367.9c-11,0-20-9-20-20s9-20,20-20c11,0,20,9,20,20S267,367.9,256,367.9z"/>
</g>
</svg>
