<?xml version="1.0" encoding="utf-8"?>
<!-- Generator: Adobe Illustrator 28.0.0, SVG Export Plug-In . SVG Version: 6.00 Build 0)  -->
<svg version="1.1" id="레이어_1" xmlns="http://www.w3.org/2000/svg" xmlns:xlink="http://www.w3.org/1999/xlink" x="0px"
	 y="0px" viewBox="0 0 512 512" style="enable-background:new 0 0 512 512;" xml:space="preserve">
<style type="text/css">
	.st0{fill:none;stroke:#55DDFF;stroke-width:32;stroke-linejoin:round;}
	.st1{fill:none;stroke:#55DDFF;stroke-width:32;stroke-linecap:round;stroke-linejoin:round;}
</style>
<path class="st0" d="M336,64h32c26.5,0,48,21.5,48,48v320c0,26.5-21.5,48-48,48H144c-26.5,0-48-21.5-48-48V112c0-26.5,21.5-48,48-48
	h32"/>
<path class="st0" d="M202.1,32h107.7c14.4,0,26.1,11.7,26.1,26.1v11.7c0,14.4-11.7,26.1-26.1,26.1H202.1C187.7,96,176,84.3,176,69.9
	V58.1C176,43.7,187.7,32,202.1,32z"/>
<line class="st1" x1="167.8" y1="187.4" x2="344.2" y2="187.4"/>
<line class="st1" x1="167.8" y1="278.9" x2="344.2" y2="278.9"/>
<line class="st1" x1="167.8" y1="370.3" x2="344.2" y2="370.3"/>
</svg>
