<?xml version="1.0" encoding="utf-8"?>
<!-- Generator: Adobe Illustrator 28.0.0, SVG Export Plug-In . SVG Version: 6.00 Build 0)  -->
<svg version="1.1" id="레이어_1" xmlns="http://www.w3.org/2000/svg" xmlns:xlink="http://www.w3.org/1999/xlink" x="0px"
	 y="0px" viewBox="0 0 512 512" style="enable-background:new 0 0 512 512;" xml:space="preserve">
<style type="text/css">
	.st0{fill:none;stroke:#55DDFF;stroke-width:32;stroke-linecap:round;stroke-linejoin:round;}
</style>
<path class="st0" d="M313.3,124.6L198.7,51.4c-9.2-4.6-20.1-4.5-29.3,0.3L56.5,127.5c-5.2,2.8-8.5,8.2-8.5,14.1v295.8
	c0,8.8,7.2,16,16,16c2.6,0,5.2-0.6,7.5-1.9l97.8-63.8c9.2-4.9,20.2-5,29.5-0.2l111.9,73c9.2,4.7,20.1,4.6,29.3-0.1l115.4-75.9
	c5.3-2.8,8.6-8.2,8.6-14.2V74.6c0-8.8-7.2-16-16-16c-2.6,0-5.2,0.6-7.5,1.9l-98,63.9C333.4,129.1,322.5,129.2,313.3,124.6z M328,128
	v336 M184,48v336"/>
</svg>
