<?xml version="1.0" encoding="utf-8"?>
<!-- Generator: Adobe Illustrator 28.0.0, SVG Export Plug-In . SVG Version: 6.00 Build 0)  -->
<svg version="1.1" id="레이어_1" xmlns="http://www.w3.org/2000/svg" xmlns:xlink="http://www.w3.org/1999/xlink" x="0px"
	 y="0px" viewBox="0 0 512 512" style="enable-background:new 0 0 512 512;" xml:space="preserve">
<style type="text/css">
	.st0{fill:none;stroke:#55DDFF;stroke-width:32;stroke-linejoin:round;}
	.st1{fill:none;stroke:#55DDFF;stroke-width:32;stroke-linecap:round;stroke-linejoin:round;}
</style>
<path class="st0" d="M57.5,47.7l368.4,368.4c14.6,14.6,14.6,38.2,0,52.7l0,0c-14.6,14.6-38.2,14.6-52.7,0l-90-91.6
	c-5.9-6-9.2-14-9.2-22.4v-5.5c0-8.6-3.4-16.8-9.5-22.8l-11.6-10.7c-8-7.4-19.2-10.2-29.8-7.4l0,0c-16.7,4.3-34.4-0.5-46.6-12.6
	l-85.4-85.4C40.4,159.7,21.7,83.2,57.5,47.7z"/>
<path class="st1" d="M400,32l-77.2,77.2c-12,12-18.8,28.3-18.8,45.3v14.9c0,4.2-1.7,8.3-4.7,11.3L288,192 M320,224l11.3-11.3
	c3-3,7.1-4.7,11.3-4.7h14.9c17,0,33.3-6.7,45.3-18.8L480,112 M440,72l-80,80 M200,368l-99.7,100.3c-15.6,15.6-40.9,15.6-56.6,0l0,0
	c-15.6-15.6-15.6-40.9,0-56.6L128,328"/>
</svg>
