<?xml version="1.0" encoding="utf-8"?>
<!-- Generator: Adobe Illustrator 28.3.0, SVG Export Plug-In . SVG Version: 6.00 Build 0)  -->
<svg version="1.1" id="_레이어_2" xmlns="http://www.w3.org/2000/svg" xmlns:xlink="http://www.w3.org/1999/xlink" x="0px"
	 y="0px" viewBox="0 0 298.2 466.8" style="enable-background:new 0 0 298.2 466.8;" xml:space="preserve">
<style type="text/css">
	.st0{fill:#F94343;}
	.st1{fill:#FFFFFF;}
</style>
<g id="_레이어_1-2">
	<path class="st0" d="M0,163C1.4,81.9,53.2,15.7,124.7,2.3c80.1-15.1,158.3,46,171.6,133.6c4.9,31.9-0.3,62-10.7,91.5
		c-15.1,42.9-36.3,82.2-58.8,120.8c-23.4,39.9-48.9,78.2-75,116c-1.4,2.1-2.3,4.4-4.9,0.6c-40.3-58.5-79.4-118-111.1-182.8
		c-13.4-27.3-25.2-55.4-31.9-85.7C1.4,184.9-0.3,173.4,0,163z"/>
	<circle class="st1" cx="149" cy="156" r="86"/>
</g>
</svg>
